<?xml version="1.0" encoding="UTF-8" standalone="no"?>
<!DOCTYPE svg PUBLIC "-//W3C//DTD SVG 1.1//EN" "http://www.w3.org/Graphics/SVG/1.1/DTD/svg11.dtd">
<svg xmlns="http://www.w3.org/2000/svg" version="1.1" viewBox="0.00 0.00 315.00 127.00">
<g stroke-width="2.00" fill="none" stroke-linecap="butt">
<path stroke="#ebef78" vector-effect="non-scaling-stroke" d="
  M 192.53 71.27
  L 205.55 71.27
  A 1.22 1.22 0.0 0 0 206.76 69.93
  Q 206.52 67.44 205.49 65.22
  C 203.64 61.20 197.81 60.36 194.17 61.48
  C 186.91 63.70 186.10 75.51 192.37 79.53
  C 196.74 82.34 202.63 80.67 206.00 76.90
  A 1.24 1.24 0.0 0 0 205.97 75.21
  Q 205.53 74.76 204.78 74.67
  A 1.40 1.39 -68.5 0 0 203.50 75.23
  Q 202.32 76.86 200.51 77.44
  Q 193.43 79.71 191.52 72.60
  A 1.05 1.05 0.0 0 1 192.53 71.27"
/>
<path stroke="#ebef78" vector-effect="non-scaling-stroke" d="
  M 233.99 63.18
  Q 233.52 61.34 231.46 61.35
  A 0.96 0.95 90.0 0 0 230.51 62.31
  L 230.52 79.12
  Q 230.52 80.46 231.86 80.47
  L 232.23 80.47
  Q 233.74 80.48 233.78 78.97
  Q 233.91 73.94 233.89 69.29
  C 233.87 63.84 242.49 62.14 242.79 68.18
  Q 243.04 73.43 242.89 79.00
  Q 242.85 80.54 244.39 80.50
  Q 244.57 80.50 244.75 80.49
  Q 246.39 80.43 246.46 78.79
  Q 246.84 70.43 246.40 67.31
  C 245.53 61.16 239.02 59.79 234.70 63.41
  Q 234.17 63.86 233.99 63.18"
/>
<path stroke="#ebef78" vector-effect="non-scaling-stroke" d="
  M 191.93 68.97
  L 203.11 69.01
  A 0.10 0.10 0.0 0 0 203.21 68.91
  L 203.21 68.86
  A 5.54 4.73 0.2 0 0 197.69 64.11
  L 197.39 64.11
  A 5.54 4.73 0.2 0 0 191.83 68.82
  L 191.83 68.87
  A 0.10 0.10 0.0 0 0 191.93 68.97"
/>
</g>
<path fill="#d7de04" d="
  M 217.9075 105.0498
  A 36.52 34.94 89.8 0 1 182.8402 68.6520
  A 36.52 34.94 89.8 0 1 217.6525 32.0102
  A 36.52 34.94 89.8 0 1 252.7198 68.4080
  A 36.52 34.94 89.8 0 1 217.9075 105.0498
  Z
  M 192.53 71.27
  L 205.55 71.27
  A 1.22 1.22 0.0 0 0 206.76 69.93
  Q 206.52 67.44 205.49 65.22
  C 203.64 61.20 197.81 60.36 194.17 61.48
  C 186.91 63.70 186.10 75.51 192.37 79.53
  C 196.74 82.34 202.63 80.67 206.00 76.90
  A 1.24 1.24 0.0 0 0 205.97 75.21
  Q 205.53 74.76 204.78 74.67
  A 1.40 1.39 -68.5 0 0 203.50 75.23
  Q 202.32 76.86 200.51 77.44
  Q 193.43 79.71 191.52 72.60
  A 1.05 1.05 0.0 0 1 192.53 71.27
  Z
  M 233.99 63.18
  Q 233.52 61.34 231.46 61.35
  A 0.96 0.95 90.0 0 0 230.51 62.31
  L 230.52 79.12
  Q 230.52 80.46 231.86 80.47
  L 232.23 80.47
  Q 233.74 80.48 233.78 78.97
  Q 233.91 73.94 233.89 69.29
  C 233.87 63.84 242.49 62.14 242.79 68.18
  Q 243.04 73.43 242.89 79.00
  Q 242.85 80.54 244.39 80.50
  Q 244.57 80.50 244.75 80.49
  Q 246.39 80.43 246.46 78.79
  Q 246.84 70.43 246.40 67.31
  C 245.53 61.16 239.02 59.79 234.70 63.41
  Q 234.17 63.86 233.99 63.18
  Z"
/>
<path fill="#fdfdfc" d="
  M 25.52 61.05
  C 21.09 73.13 35.37 83.07 45.30 74.91
  A 0.13 0.13 0.0 0 1 45.51 75.01
  L 45.55 78.71
  A 0.33 0.32 79.3 0 1 45.35 79.01
  C 37.26 82.41 27.55 81.17 23.05 73.17
  C 18.91 65.82 21.28 57.13 27.93 52.30
  Q 34.70 47.38 45.32 51.33
  Q 45.65 51.46 45.64 51.81
  L 45.56 55.17
  Q 45.55 55.43 45.33 55.29
  C 38.23 50.85 28.61 52.64 25.52 61.05
  Z"
/>
<path fill="#fdfdfc" d="
  M 155.31 64.32
  L 153.13 64.29
  A 0.43 0.43 0.0 0 1 152.71 63.85
  L 152.74 62.24
  A 0.43 0.43 0.0 0 1 153.16 61.82
  L 155.32 61.76
  A 0.43 0.43 0.0 0 0 155.74 61.33
  L 155.72 54.89
  A 0.43 0.43 0.0 0 1 156.16 54.46
  L 158.56 54.54
  A 0.43 0.43 0.0 0 1 158.97 54.97
  L 158.88 61.32
  A 0.43 0.43 0.0 0 0 159.30 61.75
  L 161.82 61.77
  A 0.43 0.43 0.0 0 1 162.25 62.19
  L 162.28 63.90
  A 0.43 0.43 0.0 0 1 161.85 64.33
  L 159.34 64.30
  A 0.43 0.43 0.0 0 0 158.90 64.73
  L 158.98 79.82
  A 0.43 0.43 0.0 0 1 158.55 80.26
  L 156.16 80.28
  A 0.43 0.43 0.0 0 1 155.72 79.85
  L 155.73 64.75
  A 0.43 0.43 0.0 0 0 155.31 64.32
  Z"
/>
<path fill="#fdfdfc" d="
  M 280.69 70.17
  L 280.67 79.32
  A 0.43 0.43 0.0 0 1 280.23 79.75
  L 278.56 79.73
  A 0.43 0.43 0.0 0 1 278.13 79.29
  L 278.24 70.19
  A 0.43 0.43 0.0 0 0 277.81 69.76
  L 270.46 69.74
  A 0.43 0.43 0.0 0 1 270.03 69.31
  L 270.01 67.71
  A 0.43 0.43 0.0 0 1 270.44 67.28
  L 277.74 67.24
  A 0.43 0.43 0.0 0 0 278.16 66.81
  L 278.06 58.15
  A 0.43 0.43 0.0 0 1 278.48 57.72
  L 280.26 57.69
  A 0.43 0.43 0.0 0 1 280.70 58.13
  L 280.66 66.84
  A 0.43 0.43 0.0 0 0 281.09 67.27
  L 288.09 67.23
  A 0.43 0.43 0.0 0 1 288.52 67.66
  L 288.53 69.35
  A 0.43 0.43 0.0 0 1 288.10 69.78
  L 281.12 69.74
  A 0.43 0.43 0.0 0 0 280.69 70.17
  Z"
/>
<path fill="#fdfdfc" d="
  M 85.5377 71.6227
  A 10.15 9.90 3.8 0 1 74.7539 80.8282
  A 10.15 9.90 3.8 0 1 65.2823 70.2773
  A 10.15 9.90 3.8 0 1 76.0661 61.0718
  A 10.15 9.90 3.8 0 1 85.5377 71.6227
  Z
  M 82.56 70.93
  A 7.03 7.03 0.0 0 0 75.53 63.90
  A 7.03 7.03 0.0 0 0 68.50 70.93
  A 7.03 7.03 0.0 0 0 75.53 77.96
  A 7.03 7.03 0.0 0 0 82.56 70.93
  Z"
/>
<path fill="#ffffeb" d="
  M 192.53 71.27
  A 1.05 1.05 0.0 0 0 191.52 72.60
  Q 193.43 79.71 200.51 77.44
  Q 202.32 76.86 203.50 75.23
  A 1.40 1.39 -68.5 0 1 204.78 74.67
  Q 205.53 74.76 205.97 75.21
  A 1.24 1.24 0.0 0 1 206.00 76.90
  C 202.63 80.67 196.74 82.34 192.37 79.53
  C 186.10 75.51 186.91 63.70 194.17 61.48
  C 197.81 60.36 203.64 61.20 205.49 65.22
  Q 206.52 67.44 206.76 69.93
  A 1.22 1.22 0.0 0 1 205.55 71.27
  L 192.53 71.27
  Z
  M 191.93 68.97
  L 203.11 69.01
  A 0.10 0.10 0.0 0 0 203.21 68.91
  L 203.21 68.86
  A 5.54 4.73 0.2 0 0 197.69 64.11
  L 197.39 64.11
  A 5.54 4.73 0.2 0 0 191.83 68.82
  L 191.83 68.87
  A 0.10 0.10 0.0 0 0 191.93 68.97
  Z"
/>
<path fill="#fdfdfc" d="
  M 112.35 64.00
  C 116.53 58.83 124.44 61.63 124.32 68.57
  Q 124.23 74.68 124.31 79.73
  Q 124.32 80.27 123.78 80.27
  L 121.31 80.25
  Q 120.90 80.25 120.91 79.84
  Q 121.00 74.68 120.99 68.95
  Q 120.99 64.43 116.36 64.37
  Q 116.26 64.37 116.15 64.39
  Q 111.63 65.30 111.68 69.52
  Q 111.75 74.43 111.73 79.81
  Q 111.73 80.27 111.27 80.27
  L 108.87 80.25
  Q 108.50 80.25 108.50 79.87
  L 108.54 62.23
  A 0.70 0.70 0.0 0 1 109.27 61.53
  L 111.25 61.60
  A 0.52 0.52 0.0 0 1 111.75 62.13
  L 111.73 63.78
  Q 111.71 64.79 112.35 64.00
  Z"
/>
<path fill="#ffffeb" d="
  M 234.70 63.41
  C 239.02 59.79 245.53 61.16 246.40 67.31
  Q 246.84 70.43 246.46 78.79
  Q 246.39 80.43 244.75 80.49
  Q 244.57 80.50 244.39 80.50
  Q 242.85 80.54 242.89 79.00
  Q 243.04 73.43 242.79 68.18
  C 242.49 62.14 233.87 63.84 233.89 69.29
  Q 233.91 73.94 233.78 78.97
  Q 233.74 80.48 232.23 80.47
  L 231.86 80.47
  Q 230.52 80.46 230.52 79.12
  L 230.51 62.31
  A 0.96 0.95 90.0 0 1 231.46 61.35
  Q 233.52 61.34 233.99 63.18
  Q 234.17 63.86 234.70 63.41
  Z"
/>
<path fill="#d7de04" d="
  M 191.93 68.97
  A 0.10 0.10 0.0 0 1 191.83 68.87
  L 191.83 68.82
  A 5.54 4.73 0.2 0 1 197.39 64.11
  L 197.69 64.11
  A 5.54 4.73 0.2 0 1 203.21 68.86
  L 203.21 68.91
  A 0.10 0.10 0.0 0 1 203.11 69.01
  L 191.93 68.97
  Z"
/>
</svg>
